<svg width="99" height="50" viewBox="0 0 99 50" fill="none" xmlns="http://www.w3.org/2000/svg">
<g filter="url(#filter0_d_31_39)">
<path d="M39.1523 36.18C37.5723 36.18 36.1123 35.92 34.7723 35.4C33.4323 34.86 32.2723 34.11 31.2923 33.15C30.3123 32.19 29.5423 31.06 28.9823 29.76C28.4423 28.46 28.1723 27.04 28.1723 25.5C28.1723 23.96 28.4423 22.54 28.9823 21.24C29.5423 19.94 30.3123 18.81 31.2923 17.85C32.2923 16.89 33.4623 16.15 34.8023 15.63C36.1423 15.09 37.6023 14.82 39.1823 14.82C40.7023 14.82 42.1323 15.08 43.4723 15.6C44.8123 16.1 45.9423 16.86 46.8623 17.88L45.4523 19.29C44.5923 18.41 43.6423 17.78 42.6023 17.4C41.5623 17 40.4423 16.8 39.2423 16.8C37.9823 16.8 36.8123 17.02 35.7323 17.46C34.6523 17.88 33.7123 18.49 32.9123 19.29C32.1123 20.07 31.4823 20.99 31.0223 22.05C30.5823 23.09 30.3623 24.24 30.3623 25.5C30.3623 26.76 30.5823 27.92 31.0223 28.98C31.4823 30.02 32.1123 30.94 32.9123 31.74C33.7123 32.52 34.6523 33.13 35.7323 33.57C36.8123 33.99 37.9823 34.2 39.2423 34.2C40.4423 34.2 41.5623 34 42.6023 33.6C43.6423 33.2 44.5923 32.56 45.4523 31.68L46.8623 33.09C45.9423 34.11 44.8123 34.88 43.4723 35.4C42.1323 35.92 40.6923 36.18 39.1523 36.18ZM61.8304 36L52.5304 15H54.9304L63.6304 34.77H62.3104L71.0704 15H73.3204L64.0204 36H61.8304Z" fill="#CC9F30"/>
</g>
<rect x="1" y="1" width="97" height="48" stroke="#CC9F30" stroke-width="2"/>
<defs>
<filter id="filter0_d_31_39" x="28.1724" y="14.8199" width="56.1479" height="32.3601" filterUnits="userSpaceOnUse" color-interpolation-filters="sRGB">
<feFlood flood-opacity="0" result="BackgroundImageFix"/>
<feColorMatrix in="SourceAlpha" type="matrix" values="0 0 0 0 0 0 0 0 0 0 0 0 0 0 0 0 0 0 127 0" result="hardAlpha"/>
<feOffset dx="7" dy="7"/>
<feGaussianBlur stdDeviation="2"/>
<feComposite in2="hardAlpha" operator="out"/>
<feColorMatrix type="matrix" values="0 0 0 0 0 0 0 0 0 0 0 0 0 0 0 0 0 0 0.25 0"/>
<feBlend mode="normal" in2="BackgroundImageFix" result="effect1_dropShadow_31_39"/>
<feBlend mode="normal" in="SourceGraphic" in2="effect1_dropShadow_31_39" result="shape"/>
</filter>
</defs>
</svg>
